<svg width="200" height="200" viewBox="0 0 200 200" fill="none" xmlns="http://www.w3.org/2000/svg">
<path fill-rule="evenodd" clip-rule="evenodd" d="M69.7997 27.7831C70.9588 26.0444 72.9103 25 75 25H125C127.09 25 129.041 26.0444 130.2 27.7831L140.845 43.75H162.5C167.473 43.75 172.242 45.7254 175.758 49.2417C179.275 52.7581 181.25 57.5272 181.25 62.5V150C181.25 154.973 179.275 159.742 175.758 163.258C172.242 166.775 167.473 168.75 162.5 168.75H37.5C32.5272 168.75 27.7581 166.775 24.2417 163.258C20.7254 159.742 18.75 154.973 18.75 150V62.5C18.75 57.5272 20.7254 52.7581 24.2417 49.2417C27.7581 45.7254 32.5272 43.75 37.5 43.75H59.1551L69.7997 27.7831ZM78.3449 37.5L67.7003 53.4669C66.5412 55.2056 64.5897 56.25 62.5 56.25H37.5C35.8424 56.25 34.2527 56.9085 33.0806 58.0806C31.9085 59.2527 31.25 60.8424 31.25 62.5V150C31.25 151.658 31.9085 153.247 33.0806 154.419C34.2527 155.592 35.8424 156.25 37.5 156.25H162.5C164.158 156.25 165.747 155.592 166.919 154.419C168.092 153.247 168.75 151.658 168.75 150V62.5C168.75 60.8424 168.092 59.2527 166.919 58.0806C165.747 56.9085 164.158 56.25 162.5 56.25H137.5C135.41 56.25 133.459 55.2056 132.3 53.4669L121.655 37.5H78.3449Z" fill="black"/>
<path fill-rule="evenodd" clip-rule="evenodd" d="M100 81.25C87.9188 81.25 78.125 91.0438 78.125 103.125C78.125 115.206 87.9188 125 100 125C112.081 125 121.875 115.206 121.875 103.125C121.875 91.0438 112.081 81.25 100 81.25ZM65.625 103.125C65.625 84.1402 81.0152 68.75 100 68.75C118.985 68.75 134.375 84.1402 134.375 103.125C134.375 122.11 118.985 137.5 100 137.5C81.0152 137.5 65.625 122.11 65.625 103.125Z" fill="black"/>
</svg>
