<svg width="400" height="457" viewBox="0 0 400 457" fill="none" xmlns="http://www.w3.org/2000/svg">
<rect y="28" width="400" height="400" rx="50" fill="#D9D9D9"/>
<path d="M317.478 73.553C326.23 68.6784 336.724 76.1314 335.009 86.0054L300.744 283.263C300.717 283.268 300.695 283.274 300.668 283.274L294.363 318.97C293.668 322.884 289.941 325.495 286.029 324.8C282.122 324.111 279.512 320.381 280.201 316.468L285.855 284.484C282.019 284.387 278.329 283.958 274.791 283.258L255.399 328.404C253.163 333.616 247.07 336.042 241.861 333.806C236.652 331.569 234.221 325.473 236.462 320.262L255.382 276.201C251.411 274.062 247.71 271.609 244.286 268.97L235.312 289.864C233.337 294.462 227.959 296.606 223.358 294.63C218.762 292.654 216.619 287.275 218.594 282.677L230.179 255.704C218.003 241.976 211.882 228.497 211.882 228.497L263.277 156.057C264.65 154.125 262.046 151.872 260.331 153.517L195.425 215.714C186.895 217.847 176.738 216.848 166.466 214.254L138.408 253.158C137.057 255.025 134.947 256.019 132.803 256.019C131.403 256.019 129.993 255.595 128.772 254.716C125.679 252.485 124.984 248.169 127.214 245.075L152.581 209.9C150.552 209.151 148.544 208.369 146.575 207.555L119.933 230.723C118.69 231.657 117.231 232.113 115.787 232.113C113.693 232.113 111.62 231.163 110.264 229.355C107.974 226.31 108.587 221.978 111.636 219.687L132.261 201.052C131.154 200.509 130.079 199.961 129.032 199.424L78.478 226.934C77.0618 227.705 75.5371 228.068 74.0341 228.068C70.7296 228.068 67.5229 226.304 65.8354 223.199C63.3774 218.672 65.0486 213.01 69.5685 210.551L153.08 165.106L317.478 73.553Z" fill="#1A9EAF"/>
<path d="M211.882 228.497C211.806 242.139 211.73 255.774 211.654 269.416C211.822 270.159 211.692 272.444 210.504 274.806C209.093 277.612 205.583 278.578 203.092 278.595C198.99 278.622 195.897 275.164 195.425 269.416V215.714L262.23 151.698C263.722 150.271 265.996 152.23 264.797 153.918L211.882 228.497Z" fill="#006A75"/>
<path d="M99.4333 247.225C102.748 247.225 105.434 244.537 105.434 241.221C105.434 237.905 102.748 235.217 99.4333 235.217C96.1189 235.217 93.4321 237.905 93.4321 241.221C93.4321 244.537 96.1189 247.225 99.4333 247.225Z" fill="#F99E23"/>
<path d="M62.5039 285.271C64.9022 287.383 68.5973 287.15 70.7081 284.75L92.7485 259.694C94.8593 257.294 94.6259 253.598 92.2276 251.486C89.8293 249.374 86.1342 249.608 84.0235 252.007L61.983 277.064C59.8723 279.463 60.1056 283.16 62.5039 285.271Z" fill="#64C3C8"/>
<path d="M154.291 282.519C158.645 282.519 162.175 278.988 162.175 274.632C162.175 270.276 158.645 266.745 154.291 266.745C149.936 266.745 146.406 270.276 146.406 274.632C146.406 278.988 149.936 282.519 154.291 282.519Z" fill="#64C3C8"/>
<path d="M219.441 315.876C222.434 315.876 224.861 313.448 224.861 310.453C224.861 307.458 222.434 305.03 219.441 305.03C216.447 305.03 214.02 307.458 214.02 310.453C214.02 313.448 216.447 315.876 219.441 315.876Z" fill="#F99E23"/>
<path d="M256.707 375.961L257.803 376.363C260.809 377.46 264.162 375.902 265.258 372.894L278.253 337.307C279.349 334.3 277.792 330.945 274.786 329.848L273.69 329.447C270.684 328.35 267.331 329.908 266.235 332.915L253.239 368.503C252.143 371.51 253.706 374.865 256.707 375.961Z" fill="#F99E23"/>
<path d="M163.851 256.931C166.304 258.347 169.434 257.506 170.851 255.052L183.472 233.182C184.888 230.728 184.047 227.596 181.594 226.179C179.142 224.763 176.011 225.604 174.595 228.058L161.974 249.928C160.563 252.382 161.399 255.514 163.851 256.931Z" fill="#F99E23"/>
<path d="M195.452 357.37C197.72 358.488 200.466 357.549 201.584 355.28L213.873 330.272C214.991 328.003 214.052 325.256 211.784 324.138C209.516 323.02 206.771 323.959 205.653 326.228L193.363 351.236C192.251 353.505 193.184 356.251 195.452 357.37Z" fill="#64C3C8"/>
<path d="M235.86 132.813C237.249 134.995 240.168 135.647 242.349 134.263L265.122 119.791C267.304 118.401 267.955 115.481 266.571 113.299C265.182 111.117 262.263 110.465 260.082 111.849L237.309 126.321C235.127 127.711 234.471 130.631 235.86 132.813Z" fill="#EEE9E2"/>
<path d="M226.788 142.302C229.808 142.302 232.257 139.852 232.257 136.83C232.257 133.808 229.808 131.359 226.788 131.359C223.767 131.359 221.318 133.808 221.318 136.83C221.318 139.852 223.767 142.302 226.788 142.302Z" fill="#EEE9E2"/>
<path d="M298.297 234.512C301.318 234.512 303.766 232.062 303.766 229.04C303.766 226.018 301.318 223.568 298.297 223.568C295.276 223.568 292.828 226.018 292.828 229.04C292.828 232.062 295.276 234.512 298.297 234.512Z" fill="#EEE9E2"/>
<path d="M300.94 217.082C303.398 217.668 305.866 216.148 306.452 213.684L312.904 186.575C313.49 184.116 311.971 181.646 309.507 181.06C307.049 180.473 304.58 181.993 303.994 184.458L297.543 211.567C296.957 214.026 298.476 216.495 300.94 217.082Z" fill="#EEE9E2"/>
</svg>
