<svg width="374" height="374" viewBox="0 0 374 374" fill="none" xmlns="http://www.w3.org/2000/svg">
<rect width="374" height="374" rx="50" fill="#0094FF"/>
<path fill-rule="evenodd" clip-rule="evenodd" d="M253.081 120.92C255.294 120.279 257.639 120.243 259.872 120.814C262.117 121.388 264.167 122.556 265.806 124.195C267.444 125.833 268.612 127.883 269.186 130.128C269.758 132.361 269.721 134.706 269.08 136.92L226.445 288.296L226.437 288.323C225.729 290.89 224.25 293.179 222.199 294.878C220.14 296.583 217.606 297.613 214.942 297.826C212.277 298.039 209.612 297.426 207.308 296.069C205.022 294.723 203.202 292.709 202.094 290.299L169.208 220.792L99.7012 187.906C97.2913 186.798 95.2775 184.978 93.931 182.692C92.5746 180.388 91.9612 177.723 92.1743 175.058C92.3875 172.394 93.4169 169.86 95.1223 167.801C96.8214 165.75 99.1094 164.271 101.676 163.563L101.705 163.555L253.081 120.92ZM254.869 127.169L256.622 133.395L256.65 133.408C256.665 133.412 256.679 133.412 256.693 133.408L254.869 127.169ZM256.553 133.448L105.133 176.095L105.224 176.137L174.754 209.034C177.491 210.31 179.69 212.509 180.966 215.246L213.863 284.776L213.905 284.867L213.918 284.819L256.553 133.448Z" fill="white"/>
<path fill-rule="evenodd" clip-rule="evenodd" d="M215.428 174.572C217.966 177.111 217.966 181.226 215.428 183.765L178.703 220.49C176.164 223.028 172.049 223.028 169.51 220.49C166.972 217.951 166.972 213.836 169.51 211.297L206.235 174.572C208.774 172.034 212.889 172.034 215.428 174.572Z" fill="white"/>
<path d="M97.0114 89V42.4545H102.648V84H124.284V89H97.0114ZM170.472 65.7273C170.472 70.6364 169.585 74.8788 167.812 78.4545C166.04 82.0303 163.608 84.7879 160.517 86.7273C157.426 88.6667 153.896 89.6364 149.926 89.6364C145.956 89.6364 142.426 88.6667 139.335 86.7273C136.244 84.7879 133.813 82.0303 132.04 78.4545C130.267 74.8788 129.381 70.6364 129.381 65.7273C129.381 60.8182 130.267 56.5758 132.04 53C133.813 49.4242 136.244 46.6667 139.335 44.7273C142.426 42.7879 145.956 41.8182 149.926 41.8182C153.896 41.8182 157.426 42.7879 160.517 44.7273C163.608 46.6667 166.04 49.4242 167.812 53C169.585 56.5758 170.472 60.8182 170.472 65.7273ZM165.017 65.7273C165.017 61.697 164.343 58.2955 162.994 55.5227C161.661 52.75 159.85 50.6515 157.562 49.2273C155.29 47.803 152.744 47.0909 149.926 47.0909C147.108 47.0909 144.555 47.803 142.267 49.2273C139.994 50.6515 138.184 52.75 136.835 55.5227C135.502 58.2955 134.835 61.697 134.835 65.7273C134.835 69.7576 135.502 73.1591 136.835 75.9318C138.184 78.7045 139.994 80.803 142.267 82.2273C144.555 83.6515 147.108 84.3636 149.926 84.3636C152.744 84.3636 155.29 83.6515 157.562 82.2273C159.85 80.803 161.661 78.7045 162.994 75.9318C164.343 73.1591 165.017 69.7576 165.017 65.7273ZM211.767 57C211.267 55.4697 210.608 54.0985 209.79 52.8864C208.987 51.6591 208.025 50.6136 206.903 49.75C205.797 48.8864 204.54 48.2273 203.131 47.7727C201.722 47.3182 200.176 47.0909 198.494 47.0909C195.737 47.0909 193.229 47.803 190.972 49.2273C188.714 50.6515 186.919 52.75 185.585 55.5227C184.252 58.2955 183.585 61.697 183.585 65.7273C183.585 69.7576 184.259 73.1591 185.608 75.9318C186.956 78.7045 188.782 80.803 191.085 82.2273C193.388 83.6515 195.979 84.3636 198.858 84.3636C201.525 84.3636 203.873 83.7955 205.903 82.6591C207.949 81.5076 209.54 79.8864 210.676 77.7955C211.828 75.6894 212.403 73.2121 212.403 70.3636L214.131 70.7273H200.131V65.7273H217.858V70.7273C217.858 74.5606 217.04 77.8939 215.403 80.7273C213.782 83.5606 211.54 85.7576 208.676 87.3182C205.828 88.8636 202.555 89.6364 198.858 89.6364C194.737 89.6364 191.116 88.6667 187.994 86.7273C184.888 84.7879 182.464 82.0303 180.722 78.4545C178.994 74.8788 178.131 70.6364 178.131 65.7273C178.131 62.0455 178.623 58.7348 179.608 55.7955C180.608 52.8409 182.017 50.3258 183.835 48.25C185.653 46.1742 187.805 44.5833 190.29 43.4773C192.775 42.3712 195.509 41.8182 198.494 41.8182C200.949 41.8182 203.237 42.1894 205.358 42.9318C207.494 43.6591 209.396 44.697 211.062 46.0455C212.744 47.3788 214.146 48.9773 215.267 50.8409C216.388 52.6894 217.161 54.7424 217.585 57H211.767ZM266.784 65.7273C266.784 70.6364 265.898 74.8788 264.125 78.4545C262.352 82.0303 259.92 84.7879 256.83 86.7273C253.739 88.6667 250.208 89.6364 246.239 89.6364C242.269 89.6364 238.739 88.6667 235.648 86.7273C232.557 84.7879 230.125 82.0303 228.352 78.4545C226.58 74.8788 225.693 70.6364 225.693 65.7273C225.693 60.8182 226.58 56.5758 228.352 53C230.125 49.4242 232.557 46.6667 235.648 44.7273C238.739 42.7879 242.269 41.8182 246.239 41.8182C250.208 41.8182 253.739 42.7879 256.83 44.7273C259.92 46.6667 262.352 49.4242 264.125 53C265.898 56.5758 266.784 60.8182 266.784 65.7273ZM261.33 65.7273C261.33 61.697 260.655 58.2955 259.307 55.5227C257.973 52.75 256.163 50.6515 253.875 49.2273C251.602 47.803 249.057 47.0909 246.239 47.0909C243.42 47.0909 240.867 47.803 238.58 49.2273C236.307 50.6515 234.496 52.75 233.148 55.5227C231.814 58.2955 231.148 61.697 231.148 65.7273C231.148 69.7576 231.814 73.1591 233.148 75.9318C234.496 78.7045 236.307 80.803 238.58 82.2273C240.867 83.6515 243.42 84.3636 246.239 84.3636C249.057 84.3636 251.602 83.6515 253.875 82.2273C256.163 80.803 257.973 78.7045 259.307 75.9318C260.655 73.1591 261.33 69.7576 261.33 65.7273Z" fill="white"/>
</svg>
