<svg width="222" height="295" viewBox="0 0 222 295" fill="none" xmlns="http://www.w3.org/2000/svg">
<path fill-rule="evenodd" clip-rule="evenodd" d="M183.081 109.92C185.294 109.279 187.639 109.243 189.872 109.814C192.117 110.388 194.167 111.556 195.806 113.195C197.444 114.833 198.612 116.883 199.186 119.128C199.758 121.361 199.721 123.706 199.08 125.92L156.445 277.296L156.437 277.323C155.729 279.89 154.25 282.179 152.199 283.878C150.14 285.583 147.606 286.613 144.942 286.826C142.277 287.039 139.612 286.426 137.308 285.069C135.022 283.723 133.202 281.709 132.094 279.299L99.2083 209.792L29.7012 176.906C27.2913 175.798 25.2775 173.978 23.931 171.692C22.5746 169.388 21.9612 166.723 22.1743 164.058C22.3875 161.394 23.4169 158.86 25.1223 156.801C26.8214 154.75 29.1094 153.271 31.6764 152.563L31.7045 152.555L183.081 109.92ZM184.869 116.169L186.622 122.395L186.65 122.408C186.665 122.412 186.679 122.412 186.693 122.408L184.869 116.169ZM186.553 122.447L35.1332 165.095L35.2236 165.137L104.754 198.034C107.491 199.31 109.69 201.509 110.966 204.246L143.863 273.776L143.905 273.867L143.918 273.819L186.553 122.447Z" fill="white"/>
<path fill-rule="evenodd" clip-rule="evenodd" d="M145.428 163.572C147.966 166.111 147.966 170.226 145.428 172.765L108.703 209.49C106.164 212.028 102.049 212.028 99.5104 209.49C96.972 206.951 96.972 202.836 99.5104 200.297L136.235 163.572C138.774 161.034 142.889 161.034 145.428 163.572Z" fill="white"/>
<path d="M27.0114 78V31.4545H32.6477V73H54.2841V78H27.0114ZM100.472 54.7273C100.472 59.6364 99.5852 63.8788 97.8125 67.4545C96.0398 71.0303 93.608 73.7879 90.517 75.7273C87.4261 77.6667 83.8958 78.6364 79.9261 78.6364C75.9564 78.6364 72.4261 77.6667 69.3352 75.7273C66.2443 73.7879 63.8125 71.0303 62.0398 67.4545C60.267 63.8788 59.3807 59.6364 59.3807 54.7273C59.3807 49.8182 60.267 45.5758 62.0398 42C63.8125 38.4242 66.2443 35.6667 69.3352 33.7273C72.4261 31.7879 75.9564 30.8182 79.9261 30.8182C83.8958 30.8182 87.4261 31.7879 90.517 33.7273C93.608 35.6667 96.0398 38.4242 97.8125 42C99.5852 45.5758 100.472 49.8182 100.472 54.7273ZM95.017 54.7273C95.017 50.697 94.3428 47.2955 92.9943 44.5227C91.661 41.75 89.8504 39.6515 87.5625 38.2273C85.2898 36.803 82.7443 36.0909 79.9261 36.0909C77.108 36.0909 74.5549 36.803 72.267 38.2273C69.9943 39.6515 68.1837 41.75 66.8352 44.5227C65.5019 47.2955 64.8352 50.697 64.8352 54.7273C64.8352 58.7576 65.5019 62.1591 66.8352 64.9318C68.1837 67.7045 69.9943 69.803 72.267 71.2273C74.5549 72.6515 77.108 73.3636 79.9261 73.3636C82.7443 73.3636 85.2898 72.6515 87.5625 71.2273C89.8504 69.803 91.661 67.7045 92.9943 64.9318C94.3428 62.1591 95.017 58.7576 95.017 54.7273ZM141.767 46C141.267 44.4697 140.608 43.0985 139.79 41.8864C138.987 40.6591 138.025 39.6136 136.903 38.75C135.797 37.8864 134.54 37.2273 133.131 36.7727C131.722 36.3182 130.176 36.0909 128.494 36.0909C125.737 36.0909 123.229 36.803 120.972 38.2273C118.714 39.6515 116.919 41.75 115.585 44.5227C114.252 47.2955 113.585 50.697 113.585 54.7273C113.585 58.7576 114.259 62.1591 115.608 64.9318C116.956 67.7045 118.782 69.803 121.085 71.2273C123.388 72.6515 125.979 73.3636 128.858 73.3636C131.525 73.3636 133.873 72.7955 135.903 71.6591C137.949 70.5076 139.54 68.8864 140.676 66.7955C141.828 64.6894 142.403 62.2121 142.403 59.3636L144.131 59.7273H130.131V54.7273H147.858V59.7273C147.858 63.5606 147.04 66.8939 145.403 69.7273C143.782 72.5606 141.54 74.7576 138.676 76.3182C135.828 77.8636 132.555 78.6364 128.858 78.6364C124.737 78.6364 121.116 77.6667 117.994 75.7273C114.888 73.7879 112.464 71.0303 110.722 67.4545C108.994 63.8788 108.131 59.6364 108.131 54.7273C108.131 51.0455 108.623 47.7348 109.608 44.7955C110.608 41.8409 112.017 39.3258 113.835 37.25C115.653 35.1742 117.805 33.5833 120.29 32.4773C122.775 31.3712 125.509 30.8182 128.494 30.8182C130.949 30.8182 133.237 31.1894 135.358 31.9318C137.494 32.6591 139.396 33.697 141.062 35.0455C142.744 36.3788 144.146 37.9773 145.267 39.8409C146.388 41.6894 147.161 43.7424 147.585 46H141.767ZM196.784 54.7273C196.784 59.6364 195.898 63.8788 194.125 67.4545C192.352 71.0303 189.92 73.7879 186.83 75.7273C183.739 77.6667 180.208 78.6364 176.239 78.6364C172.269 78.6364 168.739 77.6667 165.648 75.7273C162.557 73.7879 160.125 71.0303 158.352 67.4545C156.58 63.8788 155.693 59.6364 155.693 54.7273C155.693 49.8182 156.58 45.5758 158.352 42C160.125 38.4242 162.557 35.6667 165.648 33.7273C168.739 31.7879 172.269 30.8182 176.239 30.8182C180.208 30.8182 183.739 31.7879 186.83 33.7273C189.92 35.6667 192.352 38.4242 194.125 42C195.898 45.5758 196.784 49.8182 196.784 54.7273ZM191.33 54.7273C191.33 50.697 190.655 47.2955 189.307 44.5227C187.973 41.75 186.163 39.6515 183.875 38.2273C181.602 36.803 179.057 36.0909 176.239 36.0909C173.42 36.0909 170.867 36.803 168.58 38.2273C166.307 39.6515 164.496 41.75 163.148 44.5227C161.814 47.2955 161.148 50.697 161.148 54.7273C161.148 58.7576 161.814 62.1591 163.148 64.9318C164.496 67.7045 166.307 69.803 168.58 71.2273C170.867 72.6515 173.42 73.3636 176.239 73.3636C179.057 73.3636 181.602 72.6515 183.875 71.2273C186.163 69.803 187.973 67.7045 189.307 64.9318C190.655 62.1591 191.33 58.7576 191.33 54.7273Z" fill="white"/>
</svg>
