<svg width="200" height="200" viewBox="0 0 200 200" fill="none" xmlns="http://www.w3.org/2000/svg">
<path fill-rule="evenodd" clip-rule="evenodd" d="M35.26 13.6582C37.787 13.4043 40.3313 13.9261 42.5543 15.1542L42.5862 15.1719L174.511 89.0624L174.528 89.0717C176.474 90.1524 178.096 91.7335 179.227 93.6515C180.361 95.5749 180.959 97.7671 180.959 99.9999C180.959 102.233 180.361 104.425 179.227 106.348C178.096 108.266 176.474 109.847 174.528 110.928L174.511 110.937L42.5543 184.846C40.3313 186.074 37.7869 186.596 35.26 186.342C32.7331 186.088 30.3435 185.07 28.4093 183.424C26.475 181.779 25.088 179.583 24.4328 177.129C23.7784 174.678 23.8851 172.087 24.7386 169.698L49.5862 99.9999L24.7418 30.3105C23.887 27.9209 23.7781 25.3228 24.4328 22.8708C25.088 20.4172 26.475 18.2213 28.4093 16.5755C30.3435 14.9297 32.7331 13.9121 35.26 13.6582ZM171.485 94.5312L168.431 99.9841L36.5097 26.0956L36.5128 26.1043L61.3206 95.691C62.3997 98.4621 62.3997 101.538 61.3206 104.309L36.5097 173.904L168.431 100.016L168.459 99.9999L171.485 94.5312Z" fill="#EDE7E3"/>
<path fill-rule="evenodd" clip-rule="evenodd" d="M50 100C50 96.5482 52.7982 93.75 56.25 93.75H106.25C109.702 93.75 112.5 96.5482 112.5 100C112.5 103.452 109.702 106.25 106.25 106.25H56.25C52.7982 106.25 50 103.452 50 100Z" fill="#EDE7E3"/>
</svg>
