<svg width="270" height="270" viewBox="0 0 270 270" fill="none" xmlns="http://www.w3.org/2000/svg">
<path fill-rule="evenodd" clip-rule="evenodd" d="M135 42.1875C83.7411 42.1875 42.1875 83.7411 42.1875 135C42.1875 186.259 83.7411 227.812 135 227.812C186.259 227.812 227.812 186.259 227.812 135C227.812 83.7411 186.259 42.1875 135 42.1875ZM25.3125 135C25.3125 74.4213 74.4213 25.3125 135 25.3125C195.579 25.3125 244.688 74.4213 244.688 135C244.688 195.579 195.579 244.688 135 244.688C74.4213 244.688 25.3125 195.579 25.3125 135Z" fill="#FFA62B"/>
<path d="M97.0312 126.562C104.021 126.562 109.688 120.896 109.688 113.906C109.688 106.916 104.021 101.25 97.0312 101.25C90.0414 101.25 84.375 106.916 84.375 113.906C84.375 120.896 90.0414 126.562 97.0312 126.562Z" fill="#FFA62B"/>
<path d="M172.969 126.562C179.959 126.562 185.625 120.896 185.625 113.906C185.625 106.916 179.959 101.25 172.969 101.25C165.979 101.25 160.312 106.916 160.312 113.906C160.312 120.896 165.979 126.562 172.969 126.562Z" fill="#FFA62B"/>
<path fill-rule="evenodd" clip-rule="evenodd" d="M86.8891 153.015C90.9193 150.675 96.0827 152.046 98.422 156.076C102.141 162.483 107.476 167.8 113.896 171.496C120.315 175.192 127.592 177.138 135 177.138C142.407 177.138 149.685 175.192 156.104 171.496C162.523 167.8 167.859 162.483 171.577 156.076C173.917 152.046 179.08 150.675 183.11 153.015C187.141 155.354 188.511 160.517 186.172 164.547C180.97 173.51 173.505 180.949 164.524 186.12C155.544 191.291 145.363 194.013 135 194.013C124.637 194.013 114.456 191.291 105.475 186.12C96.4946 180.949 89.0297 173.51 83.8274 164.547C81.4882 160.517 82.8589 155.354 86.8891 153.015Z" fill="#FFA62B"/>
</svg>
